# xmcd CD database file
#
# Track frame offsets:
#	150
#	11904
#	29252
#	45670
#	65044
#	82165
#	95382
#	110102
#	122784
#	135909
#	150182
#	166857
#	186105
#	207150
#
# Disc length: 2959 seconds
#
# Revision: 0
# Processed by: cddbd v1.5.2PL0 Copyright (c) Steve Scherf et al.
# Submitted via: CDex 1.70beta2
#
DISCID=b70b8d0e
DTITLE=Christina Jaccard, Dave Ruosch and Band - Homage To Martin Luther King
DYEAR=2016
DGENRE=Jazz
TTITLE0=People Get Ready
TTITLE1=I'm On My Way
TTITLE2=Children Don't Get Weary
TTITLE3=I Wish I Knew How It Would Feel To Be Free
TTITLE4=I'm Just Another Soldier (In The Army Of Love)
TTITLE5=We Shall Overcome
TTITLE6=Sunday In Savannah
TTITLE7=Joshua Fit The Battle Of Jericho
TTITLE8=Walk On By Faith
TTITLE9=Backlash Blues
TTITLE10=Take My Hand, Precious Lord
TTITLE11=Why? (The King Of Love Is Dead)
TTITLE12=Just A Closer Walk With Thee
TTITLE13=Singing In My Soul
EXTD=YEAR: 2016
EXTT0=
EXTT1=
EXTT2=
EXTT3=
EXTT4=
EXTT5=
EXTT6=
EXTT7=
EXTT8=
EXTT9=
EXTT10=
EXTT11=
EXTT12=
EXTT13=
PLAYORDER=
